inDegrees=yes
name=ik_S53_A02_T02
DataType=double
version=3
OpenSimVersion=4.3-2021-08-27-4bc7ad9
endheader
time	pelvis_tilt	pelvis_list	pelvis_rotation	pelvis_tx	pelvis_ty	pelvis_tz	hip_flexion_r	hip_adduction_r	hip_rotation_r	knee_angle_r	knee_angle_r_beta	ankle_angle_r	subtalar_angle_r	mtp_angle_r	hip_flexion_l	hip_adduction_l	hip_rotation_l	knee_angle_l	knee_angle_l_beta	ankle_angle_l	subtalar_angle_l	mtp_angle_l	lumbar_extension	lumbar_bending	lumbar_rotation	arm_flex_r	arm_add_r	arm_rot_r	elbow_flex_r	pro_sup_r	wrist_flex_r	wrist_dev_r	arm_flex_l	arm_add_l	arm_rot_l	elbow_flex_l	pro_sup_l	wrist_flex_l	wrist_dev_l
0	0	0	0	0	0.9399999999999999	0	0	0	0	0	0	0	0	0	0	0	0	0	0	0	0	0	0	0	0	0	0	0	0	89.99999999963507	0	0	0	0	0	0	89.99999999869995	0	0
0.01666666666666667	-1.498916833367707	3.07159339808261	100.3535739247747	0	0.9399999999999999	0	-8.107381230017879	-4.386253513133362	-8.367411334361185	-2.08665423068362	-0.03641898667609845	0	0	0	-4.119320460043772	-5.247826651414686	-6.249011063862257	3.357561832801779	0.05860050882168638	0	0	0	0	0	0	2.403424967869604	-2.403424967869604	0.4286236166391968	11.9205286350615	89.57137640818802	0	0	2.403424967869604	-2.403424967869604	0.4286236166391968	11.9205286350615	89.57137640733332	0	0
0.03333333333333333	-1.438301820367076	2.861111287637851	100.4342824694017	0	0.9399999999999999	0	-7.805175057667844	-4.380371857145242	-8.518951723246833	-1.968997982814993	-0.03436549776524835	0	0	0	-3.956131195994169	-5.329836966390202	-6.353675613425513	3.348357780762326	0.05843986780907304	0	0	0	0	0	0	2.410286509411629	-2.410286509411629	0.4299607063316078	11.97204956884434	89.57003931857548	0	0	2.410286509411629	-2.410286509411629	0.4299607063316078	11.97204956884434	89.57003931772101	0	0
0.05	-1.306671002358649	2.771899629856067	100.4813601818873	0	0.9399999999999999	0	-7.601078916050117	-4.292000494658756	-8.603555913704444	-1.903449423984287	-0.03322145959371532	0	0	0	-4.003543781406116	-5.438272266451898	-6.375201470877209	2.900073666794471	0.05061583403594846	0	0	0	0	0	0	2.414421488613994	-2.414421488613994	0.4307586863334794	12.00174437869162	89.56924133862117	0	0	2.414421488613994	-2.414421488613994	0.4307586863334794	12.00174437869162	89.56924133776691	0	0
0.06666666666666667	-1.265292687608465	2.846707641857597	100.4706662862703	0	0.9399999999999999	0	-7.552125408336133	-4.264669731886556	-8.667070524570525	-1.762431961770994	-0.03076024057528667	0	0	0	-4.135687627693403	-5.52487519994769	-6.501814829380174	2.566927716297915	0.04480134031009753	0	0	0	0	0	0	2.420250249856393	-2.420250249856393	0.4318913165869706	12.04485760278977	89.56810870843532	0	0	2.420250249856393	-2.420250249856393	0.4318913165869706	12.04485760278977	89.56810870758126	0	0
0.08333333333333333	-1.276013239618756	2.849126993114364	100.4728583334467	0	0.9399999999999999	0	-7.563656117733208	-4.281330485338056	-8.665569520208035	-1.819467893621899	-0.03175570537802807	0	0	0	-4.340867504449617	-5.464533351197863	-6.380858240634443	2.047463402636832	0.03573497769009908	0	0	0	0	0	0	2.715676881228125	-2.715676881228124	0.4866429377696845	13.02426443608029	89.51335709047707	0	0	2.715676881228125	-2.715676881228124	0.4866429377696845	13.02426443608029	89.51335708963325	0	0
0.09999999999999999	-1.348423851142829	2.894979948205456	100.3282057739404	0	0.9399999999999999	0	-7.506992084457811	-4.355849331293371	-8.589662070866073	-1.787010064844515	-0.03118920939781416	0	0	0	-4.398271361811608	-5.387351860138316	-6.501162440217825	1.822429342949362	0.03180739241942328	0	0	0	0	0	0	2.719777167506875	-2.719777167506874	0.487436949556114	13.05332722815998	89.51256307873805	0	0	2.719777167506875	-2.719777167506874	0.487436949556114	13.05332722815998	89.5125630778943	0	0
0.1166666666666667	-1.475865208243831	2.871831325322839	100.0550061392638	0	0.9399999999999999	0	-7.36495833119084	-4.522318984378482	-8.398143048758053	-1.728717299972933	-0.03017180872071417	0	0	0	-4.763490850437874	-5.141827537913594	-6.29093649794004	1.184697322658994	0.02067686891996107	0	0	0	0	0	0	2.725326327350471	-2.72532632735047	0.4885149346393259	13.09309712456839	89.51148509371916	0	0	2.725326327350471	-2.72532632735047	0.4885149346393259	13.09309712456839	89.51148509287567	0	0
0.1333333333333333	-1.488940343610238	2.821875317493562	99.77124540895691	0	0.9399999999999999	0	-7.204168486346347	-4.569356398566911	-8.18753276022276	-1.689402831630235	-0.029485641804463	0	0	0	-4.798856966785998	-5.049422268195353	-6.229050421082771	1.073492017261852	0.01873597019509511	0	0	0	0	0	0	2.727679352023375	-2.727679352023374	0.4889706199686815	13.10972539875626	89.51102940841697	0	0	2.727679352023375	-2.727679352023374	0.4889706199686815	13.10972539875626	89.5110294075736	0	0
0.15	-1.426821647439953	2.54423192994896	99.5336287013297	0	0.9399999999999999	0	-6.754232019651257	-4.579635881759446	-8.033221812085044	-1.560525548570356	-0.02723630888404341	0	0	0	-4.573171777848617	-5.005283277761876	-6.421473005378905	0.8622794530222221	0.01504961552753355	0	0	0	0	0	0	2.732226890568296	-2.732226890568296	0.4898489452838921	13.1414315436347	89.51015108315417	0	0	2.732226890568296	-2.732226890568296	0.4898489452838921	13.1414315436347	89.51015108231091	0	0
0.1666666666666667	-1.322037881240716	2.273970358986236	99.49058497859562	0	0.9399999999999999	0	-6.456035433072426	-4.531163869206389	-7.990780497077066	-1.541435595980033	-0.02690312635729264	0	0	0	-4.332830039175481	-4.992194277940567	-6.125080707360582	0.6327954047429927	0.01104436330425536	0	0	0	0	0	0	2.736796797606223	-2.736796797606222	0.490736305156428	13.17402150344199	89.50926372333457	0	0	2.736796797606223	-2.736796797606222	0.490736305156428	13.17402150344199	89.50926372249154	0	0
0.1833333333333333	-1.235459077728906	2.145254031100825	99.45390978698647	0	0.9399999999999999	0	-6.175174646091616	-4.475295500241858	-7.946158828928814	-1.435434241580523	-0.02505305371144782	0	0	0	-4.212349025566871	-5.0201238232246	-6.015978411491003	0.5034948783582596	0.008787643394279971	0	0	0	0	0	0	2.741282539252596	-2.741282539252595	0.4916060398480416	13.20577767232587	89.50839398869491	0	0	2.741282539252596	-2.741282539252595	0.4916060398480416	13.20577767232587	89.50839398785197	0	0
0.2	-1.236190878880721	2.128120968870299	99.45473918973447	0	0.9399999999999999	0	-6.048658753689645	-4.476096087969803	-7.932804769189217	-1.377683923102777	-0.02404512050993584	0	0	0	-4.184940304362645	-5.004526427555066	-5.974434997791803	0.4639968286766665	0.008098272379219874	0	0	0	0	0	0	2.946773110515128	-2.946773110515127	0.5307198114557795	14.38381816250494	89.46928021940852	0	0	2.946773110515128	-2.946773110515127	0.5307198114557795	14.38381816250494	89.46928021857298	0	0
0.2166666666666666	-1.197186027689414	2.159831017525228	99.38926523032302	0	0.9399999999999999	0	-6.059723537809244	-4.459799534085279	-7.883037749044576	-1.428630321374311	-0.02493430290180645	0	0	0	-4.222465204003099	-5.059652548642182	-6.056408473440192	0.4514032342544719	0.007878472691891786	0	0	0	0	0	0	3.005654516157501	-3.005654516157501	0.5415420806200577	14.57772052873654	89.45845795088039	0	0	3.005654516157501	-3.005654516157501	0.5415420806200577	14.57772052873654	89.45845795004685	0	0
0.2333333333333333	-1.208325359167489	2.213740725036765	99.33490731572779	0	0.9399999999999999	0	-6.100307159396843	-4.477317982057262	-7.851496002014968	-1.482886195410686	-0.0258812465422885	0	0	0	-4.29251277846021	-5.046254959826785	-6.104982205480817	0.4295800270504457	0.007497585872836583	0	0	0	0	0	0	3.244692709199272	-3.244692709199271	0.5855642069281635	15.51532065854933	89.41443582716171	0	0	3.244692709199272	-3.244692709199271	0.5855642069281635	15.51532065854933	89.41443582633642	0	0
0.25	-1.233937839038711	2.30605572186075	99.29403985980306	0	0.9399999999999999	0	-6.13698184119007	-4.513403488917475	-7.794112278009994	-1.450165466208422	-0.02531016208405554	0	0	0	-4.388824142713935	-5.048587201221573	-6.180209808210036	0.4496115826864579	0.007847202472981422	0	0	0	0	0	0	3.229075968462801	-3.229075968462801	0.5830035638166211	15.53630759496958	89.41699647012774	0	0	3.229075968462801	-3.229075968462801	0.5830035638166211	15.53630759496958	89.41699646930199	0	0
0.2666666666666667	-1.243885258224917	2.30315349218102	99.230507647199	0	0.9399999999999999	0	-6.082403158793451	-4.51756643773429	-7.720609487981182	-1.429126474039176	-0.02494296239940089	0	0	0	-4.39539476515333	-5.030115937808619	-6.293897241844186	0.4315205977034599	0.007531455220099256	0	0	0	0	0	0	3.273461261251473	-3.273461261251473	0.5912954145040754	15.72053629312689	89.40870461992988	0	0	3.273461261251473	-3.273461261251473	0.5912954145040754	15.72053629312689	89.40870461910568	0	0
0.2833333333333333	-1.236778299450371	2.342463400281382	99.09983574083857	0	0.9399999999999999	0	-6.098519983531787	-4.53569540037473	-7.583711613112101	-1.419675261683198	-0.0247780076254839	0	0	0	-4.492388866195264	-5.040934193932636	-6.548477622286438	0.3574824864902637	0.00623924640747125	0	0	0	0	0	0	3.471591608009662	-3.471591608009661	0.6279264808933078	16.56999080587325	89.37207355569801	0	0	3.471591608009662	-3.471591608009661	0.6279264808933078	16.56999080587325	89.3720735548807	0	0
0.3	-1.240428413570184	2.362000108003755	99.10621549947892	0	0.9399999999999999	0	-6.063078886073925	-4.543622619329701	-7.669175438035478	-1.394320977211307	-0.02433549188196213	0	0	0	-4.540296148534174	-5.045580798076585	-6.647178425223147	0.3331205659806447	0.005814050682469264	0	0	0	0	0	0	3.532637950767462	-3.532637950767461	0.6390728207667267	16.77637054734181	89.36092721647883	0	0	3.532637950767462	-3.532637950767461	0.6390728207667267	16.77637054734181	89.36092721566362	0	0
0.3166666666666667	-1.212883291433057	2.37193251214113	99.0923290286038	0	0.9399999999999999	0	-6.050248420438062	-4.530891822186465	-7.756239566948829	-1.395402809205677	-0.02435437341221731	0	0	0	-4.473022951689271	-4.99462278555472	-6.870617016858612	0.3590928240274435	0.006267352099563494	0	0	0	0	0	0	3.534350966431987	-3.534350966431987	0.6393980645366146	16.78643038337179	89.36060197272825	0	0	3.534350966431987	-3.534350966431987	0.6393980645366146	16.78643038337179	89.36060197191307	0	0
0.3333333333333333	-1.219996423951798	2.3397531378037	98.97173731083535	0	0.9399999999999999	0	-5.949149482062034	-4.574615746030227	-7.662229526869254	-1.390958666637781	-0.02427680849197949	0	0	0	-4.430935030956204	-4.970132631134126	-6.997058962069234	0.4099192584790393	0.007154440727792919	0	0	0	0	0	0	3.611031158168583	-3.611031158168583	0.6535081641252526	17.07213558548003	89.34649187396948	0	0	3.611031158168583	-3.611031158168583	0.6535081641252526	17.07213558548003	89.34649187315705	0	0
0.35	-1.230643250574674	2.296558821868022	98.91915842139798	0	0.9399999999999999	0	-5.892154455298876	-4.603069866747686	-7.644216639998909	-1.347042657000691	-0.0235103295294747	0	0	0	-4.34488543049194	-4.942267996958924	-7.003209049241801	0.4264395666815096	0.007442774499370251	0	0	0	0	0	0	3.66316380451353	-3.66316380451353	0.6630408229044722	17.25043914830018	89.33695921575001	0	0	3.66316380451353	-3.66316380451353	0.6630408229044722	17.25043914830018	89.33695921493931	0	0
